# xmcd CD database file
#
# Track frame offsets:
#	150
#	18995
#	38275
#	50425
#	63037
#	72937
#	84375
#	100882
#	114050
#	128525
#	139750
#	159035
#	171250
#
# Disc length: 2404 seconds
#
# Revision: 0
# Processed by: cddbd v1.4b42PL0 Copyright (c) Steve Scherf et al.
# Submitted via: CDex 1.40Beta6
#
DISCID=8f09620d
DTITLE=DOUG ASHDOWN - WINTER IN AMERICA
DYEAR=1900
DGENRE=Country
TTITLE0=Winter in America (Leave Love Enough Alone)
TTITLE1=Willie's Shades
TTITLE2=You're the Song
TTITLE3=Love Ain't Worth The Livin' When It Dies
TTITLE4=The Flowers And The Wine
TTITLE5=Skid Row
TTITLE6=Sally Broome
TTITLE7=You Are All I Need To Know Of Love
TTITLE8=Jeannie
TTITLE9=They Always Seem To Look Like Marianne
TTITLE10=Tomorrow Is The Last Time
TTITLE11=No Other Words
TTITLE12=Leave Love Enough Alone (Reprise)
EXTD=
EXTT0=
EXTT1=
EXTT2=
EXTT3=
EXTT4=
EXTT5=
EXTT6=
EXTT7=
EXTT8=
EXTT9=
EXTT10=
EXTT11=
EXTT12=
PLAYORDER=
